<?xml version="1.0" encoding="UTF-8"?><svg xmlns="http://www.w3.org/2000/svg" viewBox="0 0 17.6 12.08"><defs><style>.d{fill:#7b7b7b;fill-rule:evenodd;}</style></defs><g id="a"/><g id="b"><g id="c"><path class="d" d="M10.98,6.04c-.66-1.05-1.72-1.05-2.38,0l-.13,.13c-.53-.79-1.06-1.71-1.46-2.49-.93-1.58-2.38-1.58-3.31,0-.93,1.58-2.38,4.07-3.31,5.64-.93,1.58-.13,2.76,1.72,2.76H12.3c1.32,0,1.85-.79,1.19-1.97-.66-1.18-1.72-2.89-2.52-4.07m6.62-3.15c0,1.58-1.32,2.89-2.91,2.89s-2.78-1.44-2.78-2.89c0-1.58,1.19-2.89,2.78-2.89s2.91,1.31,2.91,2.89"/></g></g></svg>