<?xml version="1.0" encoding="UTF-8"?><svg xmlns="http://www.w3.org/2000/svg" viewBox="0 0 14.99 18.73"><defs><style>.d{fill:#7b7b7b;fill-rule:evenodd;}</style></defs><g id="a"/><g id="b"><g id="c"><path class="d" d="M3.75,6.56c-1.03,0-1.87,.84-1.87,1.87s.84,1.87,1.87,1.87,1.87-.84,1.87-1.87-.84-1.87-1.87-1.87m-1.87,10.3H13.11v-7.49l-3.75,3.75-1.87-1.87L1.87,16.86M1.87,0h7.49l5.62,5.62v11.24c0,1.03-.84,1.87-1.87,1.87H1.87c-1.04,0-1.87-.84-1.87-1.87V1.87C0,.83,.83,0,1.87,0m6.56,6.56h5.15L8.43,1.4V6.56"/></g></g></svg>