<?xml version="1.0" encoding="UTF-8"?><svg xmlns="http://www.w3.org/2000/svg" viewBox="0 0 22.48 22.48"><defs><style>.d{fill:#7b7b7b;fill-rule:evenodd;}</style></defs><g id="a"/><g id="b"><g id="c"><path class="d" d="M8.35,14.14c-3.2,0-5.78-2.58-5.78-5.78S5.15,2.58,8.35,2.58s5.78,2.58,5.78,5.78-2.58,5.78-5.78,5.78m7.71,0h-1.02l-.36-.35c1.3-1.51,2.02-3.44,2.02-5.43C16.71,1.93,9.75-2.08,4.18,1.13-1.39,4.34-1.39,12.38,4.18,15.59c1.27,.73,2.71,1.12,4.18,1.12,2.07,0,3.97-.76,5.44-2.02l.35,.36v1.01l6.43,6.41,1.91-1.91-6.41-6.42"/></g></g></svg>