<?xml version="1.0" encoding="UTF-8"?><svg xmlns="http://www.w3.org/2000/svg" viewBox="0 0 17.98 18.73"><defs><style>.d{fill:#7b7b7b;fill-rule:evenodd;}</style></defs><g id="a"/><g id="b"><g id="c"><path class="d" d="M8.99,12.64c-1.78,0-3.24-1.47-3.24-3.28s1.45-3.28,3.24-3.28,3.24,1.47,3.24,3.28-1.45,3.28-3.24,3.28m6.87-2.36c.04-.3,.06-.6,.06-.92s-.03-.62-.06-.92l1.95-1.55c.18-.14,.22-.39,.11-.6l-1.85-3.24c-.11-.21-.36-.28-.56-.21l-2.3,.94c-.48-.37-1-.68-1.56-.92l-.35-2.48C11.26,.17,11.07,0,10.84,0h-3.7C6.91,0,6.72,.17,6.69,.39l-.35,2.48c-.56,.23-1.08,.55-1.56,.92l-2.3-.94c-.21-.08-.45,0-.56,.21L.06,6.3c-.12,.21-.06,.46,.11,.6l1.95,1.55c-.04,.3-.06,.61-.06,.92s.03,.62,.06,.92L.18,11.83c-.18,.14-.22,.39-.11,.6l1.85,3.24c.11,.21,.36,.28,.56,.21l2.3-.94c.48,.37,1,.68,1.56,.92l.35,2.48c.03,.22,.22,.39,.45,.39h3.7c.23,0,.43-.17,.45-.39l.35-2.48c.56-.23,1.08-.55,1.56-.92l2.3,.94c.21,.08,.45,0,.56-.21l1.85-3.24c.11-.21,.06-.46-.11-.6l-1.95-1.55"/></g></g></svg>