<?xml version="1.0" encoding="UTF-8"?><svg xmlns="http://www.w3.org/2000/svg" viewBox="0 0 12.74 12.74"><defs><style>.d{fill:#7b7b7b;fill-rule:evenodd;}</style></defs><g id="a"/><g id="b"><g id="c"><path class="d" d="M9.55,7.96h-1.37c-.55,.25-1.17,.4-1.82,.4s-1.26-.14-1.82-.4h-1.37c-1.76,0-3.18,1.43-3.18,3.18v.4c0,.66,.54,1.19,1.19,1.19H11.54c.66,0,1.19-.54,1.19-1.19v-.4c0-1.76-1.43-3.18-3.18-3.18m-3.18-.8c1.98,0,3.58-1.6,3.58-3.58S8.35,0,6.37,0,2.79,1.6,2.79,3.58s1.6,3.58,3.58,3.58"/></g></g></svg>