<?xml version="1.0" encoding="UTF-8"?><svg xmlns="http://www.w3.org/2000/svg" viewBox="0 0 18.73 18.73"><defs><style>.d{fill:#7b7b7b;fill-rule:evenodd;}</style></defs><g id="a"/><g id="b"><g id="c"><path class="d" d="M6.81,13.26v1.89h5.11v-1.89l2.77,2.74-2.77,2.74v-1.89H6.81v1.89l-2.77-2.74,2.77-2.74M12.77,5.05c-1.41,0-2.55-1.13-2.55-2.53s1.14-2.53,2.55-2.53,2.55,1.13,2.55,2.53-1.14,2.53-2.55,2.53m-6.81,0c-1.41,0-2.55-1.13-2.55-2.53S4.55,0,5.96,0s2.55,1.13,2.55,2.53-1.14,2.53-2.55,2.53m0,1.68c1.98,0,5.96,.98,5.96,2.95v2.1H0v-2.1c0-1.96,3.98-2.95,5.96-2.95m6.81,0c1.98,0,5.96,.98,5.96,2.95v2.1h-5.11v-2.1c0-1.26-.69-2.2-1.67-2.9l.82-.04"/></g></g></svg>